<?xml version="1.0" encoding="UTF-8"?>
<svg width="247px" height="256px" viewBox="0 0 247 256" version="1.1" xmlns="http://www.w3.org/2000/svg" xmlns:xlink="http://www.w3.org/1999/xlink">
    <!-- Generator: Sketch 49.2 (51160) - http://www.bohemiancoding.com/sketch -->
    <title>stacked-white</title>
    <desc>Created with Sketch.</desc>
    <defs></defs>
    <g id="FINAL" stroke="none" stroke-width="1" fill="none" fill-rule="evenodd">
        <g id="FE_Logo_V2_06" transform="translate(-376.000000, -272.000000)" fill="#FFFFFF">
            <g id="stacked-white" transform="translate(376.000000, 272.000000)">
                <path d="M0.178381596,163.486732 L0.178381596,0 L110.560913,0 L110.560913,28.5232171 L35.890377,28.5232171 L35.890377,66.0903811 L105.922991,66.0903811 L105.922991,94.6135983 L35.890377,94.6135983 L35.890377,163.486732 L0.178381596,163.486732 Z M132.822936,163.486732 L132.822936,0 L245.524428,0 L245.524428,28.059425 L168.071139,28.059425 L168.071139,66.3222772 L240.886507,66.3222772 L240.886507,94.3817022 L168.071139,94.3817022 L168.071139,135.427307 L245.524428,135.427307 L245.524428,163.486732 L132.822936,163.486732 Z M0,185.784432 L246.166602,185.784432 L246.166602,214.52514 L0,214.52514 L0,185.784432 Z" id="FE_Logo_navy"></path>
                <path d="M1.64755307,255.284916 L1.64755307,237.136089 L14.2873743,237.136089 L14.2873743,240.843084 L6.30703911,240.843084 L6.30703911,244.189676 L13.772514,244.189676 L13.772514,247.89667 L6.30703911,247.89667 L6.30703911,255.284916 L1.64755307,255.284916 Z M19.2368079,255.284916 L19.2368079,237.136089 L23.973523,237.136089 L23.973523,255.284916 L19.2368079,255.284916 Z M29.9784202,255.284916 L29.9784202,237.136089 L42.8756716,237.136089 L42.8756716,240.791598 L34.5864202,240.791598 L34.5864202,244.241162 L42.3608113,244.241162 L42.3608113,247.870927 L34.5864202,247.870927 L34.5864202,251.629408 L42.8756716,251.629408 L42.8756716,255.284916 L29.9784202,255.284916 Z M48.0567924,255.284916 L48.0567924,237.136089 L52.7935075,237.136089 L52.7935075,251.449207 L60.5164125,251.449207 L60.5164125,255.284916 L48.0567924,255.284916 Z M65.4915891,237.136089 L72.8798349,237.136089 C74.8878003,237.136089 76.6168556,237.496488 78.0670528,238.217296 C79.51725,238.938104 80.6284791,239.980686 81.4007735,241.345073 C82.1730678,242.709459 82.5592092,244.326963 82.5592092,246.197631 C82.5592092,248.085462 82.1773583,249.711546 81.413645,251.075933 C80.6499317,252.44032 79.542993,253.482901 78.0927958,254.203709 C76.6425986,254.924518 74.9049624,255.284916 72.8798349,255.284916 L65.4915891,255.284916 L65.4915891,237.136089 Z M72.5451757,251.47495 C74.3300338,251.47495 75.6600763,251.037323 76.5353433,250.162056 C77.4106102,249.286789 77.8482371,247.965327 77.8482371,246.197631 C77.8482371,244.429935 77.4106102,243.112764 76.5353433,242.246078 C75.6600763,241.379392 74.3300338,240.946056 72.5451757,240.946056 L70.2283042,240.946056 L70.2283042,251.47495 L72.5451757,251.47495 Z M98.1730261,255.284916 L98.1730261,237.136089 L111.070278,237.136089 L111.070278,240.791598 L102.781026,240.791598 L102.781026,244.241162 L110.555417,244.241162 L110.555417,247.870927 L102.781026,247.870927 L102.781026,251.629408 L111.070278,251.629408 L111.070278,255.284916 L98.1730261,255.284916 Z M128.015957,237.136089 L132.443756,237.136089 L132.443756,255.284916 L128.942706,255.284916 L120.653454,244.91048 L120.653454,255.284916 L116.251398,255.284916 L116.251398,237.136089 L119.700962,237.136089 L128.015957,247.510525 L128.015957,237.136089 Z M154.512296,245.039196 L154.512296,254.12648 C153.56838,254.572695 152.495765,254.915932 151.294418,255.156201 C150.093072,255.39647 148.866,255.516603 147.613167,255.516603 C145.639526,255.516603 143.927632,255.143333 142.477435,254.396782 C141.027238,253.650231 139.916009,252.577616 139.143715,251.178905 C138.37142,249.780194 137.985279,248.119786 137.985279,246.197631 C137.985279,244.326963 138.37142,242.688007 139.143715,241.280715 C139.916009,239.873423 141.010076,238.792227 142.425949,238.037095 C143.841822,237.281963 145.50223,236.904402 147.407223,236.904402 C148.728704,236.904402 149.968647,237.076021 151.127089,237.419263 C152.28553,237.762505 153.225141,238.234455 153.945949,238.835128 L152.478597,242.181721 C151.637654,241.632534 150.831048,241.237811 150.058754,240.997542 C149.286459,240.757273 148.462691,240.63714 147.587424,240.63714 C145.957025,240.63714 144.742825,241.091928 143.944787,242.00152 C143.14675,242.911111 142.747737,244.309801 142.747737,246.197631 C142.747737,248.136948 143.163911,249.574252 143.996273,250.509587 C144.828635,251.444921 146.102901,251.912581 147.819111,251.912581 C148.642892,251.912581 149.458079,251.826772 150.264698,251.655151 L150.264698,248.282816 L147.072564,248.282816 L147.072564,245.039196 L154.512296,245.039196 Z M160.311249,255.284916 L160.311249,237.136089 L165.047964,237.136089 L165.047964,255.284916 L160.311249,255.284916 Z M182.81742,237.136089 L187.245219,237.136089 L187.245219,255.284916 L183.744168,255.284916 L175.454917,244.91048 L175.454917,255.284916 L171.052861,255.284916 L171.052861,237.136089 L174.502425,237.136089 L182.81742,247.510525 L182.81742,237.136089 Z M193.250116,255.284916 L193.250116,237.136089 L206.147367,237.136089 L206.147367,240.791598 L197.858116,240.791598 L197.858116,244.241162 L205.632507,244.241162 L205.632507,247.870927 L197.858116,247.870927 L197.858116,251.629408 L206.147367,251.629408 L206.147367,255.284916 L193.250116,255.284916 Z M211.328488,255.284916 L211.328488,237.136089 L224.225739,237.136089 L224.225739,240.791598 L215.936488,240.791598 L215.936488,244.241162 L223.710879,244.241162 L223.710879,247.870927 L215.936488,247.870927 L215.936488,251.629408 L224.225739,251.629408 L224.225739,255.284916 L211.328488,255.284916 Z M245.727933,255.284916 L240.527843,255.284916 L237.387195,249.492737 C236.992467,248.823416 236.36606,248.48876 235.507955,248.48876 L234.066346,248.48876 L234.066346,255.284916 L229.40686,255.284916 L229.40686,237.136089 L238.056514,237.136089 C240.253262,237.136089 241.905089,237.61233 243.012044,238.564827 C244.119,239.517323 244.672469,240.894561 244.672469,242.696581 C244.672469,244.069549 244.294909,245.232263 243.539776,246.18476 C242.784644,247.137256 241.72061,247.776535 240.347642,248.102615 C241.39453,248.325722 242.226879,249.003614 242.844715,250.136313 L245.727933,255.284916 Z M239.56248,244.447106 C240.017276,244.121026 240.24467,243.589009 240.24467,242.851039 C240.24467,242.095907 240.017276,241.551018 239.56248,241.216358 C239.107685,240.881697 238.356854,240.714369 237.309966,240.714369 L234.01486,240.714369 L234.01486,244.936223 L237.309966,244.936223 C238.356854,244.936223 239.107685,244.773186 239.56248,244.447106 Z" id="FIELD-ENGINEER"></path>
            </g>
        </g>
    </g>
</svg>